<ttFont>
<head>
    <!-- Most of this table will be recalculated by the compiler -->
    <tableVersion value="1.0"/>
    <fontRevision value="1.0"/>
    <checkSumAdjustment value="0x29633b01"/>
    <magicNumber value="0x5f0f3cf5"/>
    <flags value="00000000 00000001"/>
    <unitsPerEm value="1500"/>
    <created value="Thu Jan  1 00:00:00 1970"/>
    <modified value="Wed May 27 01:31:53 2020"/>
    <xMin value="22"/>
    <yMin value="-114"/>
    <xMax value="1074"/>
    <yMax value="691"/>
    <macStyle value="00000000 00000000"/>
    <lowestRecPPEM value="3"/>
    <fontDirectionHint value="2"/>
    <indexToLocFormat value="0"/>
    <glyphDataFormat value="0"/>
  </head>
          <CharString index="0">
            41 642 rmoveto
            1 -2 1 -1 -1 vvcurveto
            -7 2 -7 5 -5 vhcurveto
            15 -69 -71 -105 61 -45 71 -50 214 60 48 -116 9 -20 3 -24 -3 -22 -13 -128 -51 -35 -120 -6 -38 -1 -62 -5 -26 34 -29 22 -33 -28 16 -33 39 -51 75 0 59 2 83 5 76 21 49 69 rrcurveto
            25 36 0 48 11 42 19 72 -43 43 -42 45 -62 68 -159 -25 -76 26 -20 43 44 56 -6 66 101 14 102 -5 103 -1 37 7 0 42 -35 11 -109 1 -110 5 -108 -17 rrcurveto
            -1 1 0 0 1 vvcurveto
            -25 33 -45 -26 18 -38 rrcurveto
            407 -673 rmoveto
            return
          </CharString>
          <CharString index="1">
            399 660 rmoveto
            -36 2 -37 10 -35 -8 -152 -32 -56 -137 -37 -134 -35 -130 55 -175 141 -42 156 -46 135 253 -64 123 -39 78 -32 -3 -81 14 -26 5 -36 -14 -24 -10 -36 -15 -28 -18 -26 -26 19 101 63 130 114 18 rrcurveto
            32 5 31 -8 32 -1 37 7 0 42 -35 11 rrcurveto
            -263 -360 rmoveto
            52 57 149 71 42 -110 33 -84 -77 -193 -113 33 -98 30 -29 103 4 92 9 -7 14 -1 14 9 rrcurveto
            401 -299 rmoveto
            return
          </CharString>
          <CharString index="2">
            99 610 rmoveto
            63 14 62 -15 64 -2 rrcurveto
            22 23 1 2 22 hvcurveto
            -24 -33 -19 -38 -22 -38 -85 -149 -77 -149 -19 -173 4 -37 43 -4 12 34 19 165 74 145 83 142 34 57 25 61 56 36 21 24 -14 30 -32 -2 rrcurveto
            -6 -47 -49 -8 -48 hhcurveto
            -71 2 -67 15 -70 -17 -40 -14 16 -51 41 8 rrcurveto
            418 -667 rmoveto
            return
          </CharString>
          <CharString index="3">
            500 0 rmoveto
            return
          </CharString>
        <CharString name=".notdef">
          -104 callsubr
          -104 callsubr
          endchar
        </CharString>
        <CharString name="g1">
          endchar
        </CharString>
        <CharString name="g10">
          endchar
        </CharString>
        <CharString name="g11">
          endchar
        </CharString>
        <CharString name="g12">
          endchar
        </CharString>
        <CharString name="g13">
          endchar
        </CharString>
        <CharString name="g14">
          endchar
        </CharString>
        <CharString name="g15">
          endchar
        </CharString>
        <CharString name="g16">
          endchar
        </CharString>
        <CharString name="g17">
          endchar
        </CharString>
        <CharString name="g18">
          endchar
        </CharString>
        <CharString name="g19">
          endchar
        </CharString>
        <CharString name="g2">
          endchar
        </CharString>
        <CharString name="g20">
          endchar
        </CharString>
        <CharString name="g21">
          endchar
        </CharString>
        <CharString name="g22">
          endchar
        </CharString>
        <CharString name="g23">
          endchar
        </CharString>
        <CharString name="g24">
          endchar
        </CharString>
        <CharString name="g25">
          endchar
        </CharString>
        <CharString name="g26">
          endchar
        </CharString>
        <CharString name="g27">
          endchar
        </CharString>
        <CharString name="g28">
          endchar
        </CharString>
        <CharString name="g29">
          endchar
        </CharString>
        <CharString name="g3">
          endchar
        </CharString>
        <CharString name="g30">
          endchar
        </CharString>
        <CharString name="g31">
          endchar
        </CharString>
        <CharString name="g32">
          endchar
        </CharString>
        <CharString name="g33">
          endchar
        </CharString>
        <CharString name="g34">
          endchar
        </CharString>
        <CharString name="g35">
          endchar
        </CharString>
        <CharString name="g36">
          endchar
        </CharString>
        <CharString name="g37">
          endchar
        </CharString>
        <CharString name="g38">
          endchar
        </CharString>
        <CharString name="g39">
          endchar
        </CharString>
        <CharString name="g4">
          endchar
        </CharString>
        <CharString name="g40">
          endchar
        </CharString>
        <CharString name="g41">
          endchar
        </CharString>
        <CharString name="g42">
          endchar
        </CharString>
        <CharString name="g43">
          endchar
        </CharString>
        <CharString name="g44">
          endchar
        </CharString>
        <CharString name="g45">
          endchar
        </CharString>
        <CharString name="g46">
          endchar
        </CharString>
        <CharString name="g47">
          endchar
        </CharString>
        <CharString name="g48">
          endchar
        </CharString>
        <CharString name="g49">
          endchar
        </CharString>
        <CharString name="g5">
          endchar
        </CharString>
        <CharString name="g50">
          endchar
        </CharString>
        <CharString name="g51">
          endchar
        </CharString>
        <CharString name="g52">
          endchar
        </CharString>
        <CharString name="g53">
          endchar
        </CharString>
        <CharString name="g54">
          endchar
        </CharString>
        <CharString name="g55">
          endchar
        </CharString>
        <CharString name="g56">
          endchar
        </CharString>
        <CharString name="g57">
          endchar
        </CharString>
        <CharString name="g58">
          endchar
        </CharString>
        <CharString name="g59">
          endchar
        </CharString>
        <CharString name="g6">
          endchar
        </CharString>
        <CharString name="g60">
          endchar
        </CharString>
        <CharString name="g61">
          endchar
        </CharString>
        <CharString name="g62">
          endchar
        </CharString>
        <CharString name="g63">
          endchar
        </CharString>
        <CharString name="g64">
          endchar
        </CharString>
        <CharString name="g65">
          -106 callsubr
          -107 callsubr
          endchar
        </CharString>
        <CharString name="g66">
          -106 callsubr
          -106 callsubr
          endchar
        </CharString>
        <CharString name="g67">
          -106 callsubr
          -105 callsubr
          endchar
        </CharString>
        <CharString name="g7">
          endchar
        </CharString>
        <CharString name="g8">
          endchar
        </CharString>
        <CharString name="g9">
          endchar
        </CharString>
</ttFont>
